<svg xmlns="http://www.w3.org/2000/svg" width="660" height="868" fill="none" viewBox="0 0 660 868"><g clip-path="url(#a)" filter="url(#b)"><path fill="#BFE1F2" d="M30 74h600v63H30zm0 742h600v62H30zm0-371h600v59H30zm0 744h600v60H30zm0-929h600v58H30zm0 744h600v59H30zm0-374h600v60H30zm0 745h600v61H30z"/><path fill="#ACCEE6" d="M30 137h600v12H30zm0 741h600v11H30zm0-374h600v12H30zm0 745h600v13H30zm0-931h600v13H30zm0 745h600v13H30zm0-373h600v14H30zm0 746h600v13H30z"/><path fill="#CFE8FF" d="M568 19h42v185h-42zm0 741h42v186h-42zm0-371h42v186h-42zm0 743h42v188h-42z"/><path fill="#CFE8FF" d="M568 201h42v188h-42zm0 745h42v186h-42zm0-371h42v185h-42zm0 745h42v184h-42zM52 19h40v185H52zm0 741h40v186H52zm0-371h40v186H52zm0 743h40v188H52z"/><path fill="#CFE8FF" d="M52 201h40v188H52zm0 745h40v186H52zm0-371h40v185H52zm0 745h40v184H52z"/></g><defs><clipPath id="a"><path fill="#fff" d="M0 0h660v868H0z"/></clipPath><filter id="b" width="630" height="1515" x="15" y="4" color-interpolation-filters="sRGB" filterUnits="userSpaceOnUse"><feFlood flood-opacity="0" result="BackgroundImageFix"/><feBlend in="SourceGraphic" in2="BackgroundImageFix" result="shape"/><feGaussianBlur result="effect1_foregroundBlur_79_38" stdDeviation="7.5"/></filter></defs></svg>