<svg aria-hidden="true" style="position: absolute; width: 0; height: 0; overflow: hidden;" version="1.1" xmlns="http://www.w3.org/2000/svg" xmlns:xlink="http://www.w3.org/1999/xlink">
<defs>
<symbol id="icon-burger" viewBox="0 0 320 32">
<path d="M16 0h288c8.837 0 16 7.163 16 16s-7.163 16-16 16h-288c-8.837 0-16-7.163-16-16s7.163-16 16-16z"></path>
</symbol>
<symbol id="icon-download" viewBox="0 0 32 32">
<path d="M13.594 0.087c-0.231 0.106-0.438 0.325-0.525 0.556-0.050 0.119-0.069 2.25-0.069 6.769v6.588h-2.075c-1.894 0-2.106 0.012-2.338 0.119-0.381 0.175-0.556 0.456-0.556 0.888 0 0.312 0.031 0.394 0.219 0.631 0.119 0.15 1.769 2.044 3.669 4.212 2.369 2.712 3.519 3.975 3.662 4.050 0.275 0.125 0.563 0.125 0.838 0 0.144-0.075 1.294-1.338 3.663-4.050 1.9-2.169 3.55-4.063 3.669-4.212 0.194-0.244 0.219-0.313 0.219-0.638 0-0.312-0.031-0.4-0.194-0.6-0.306-0.375-0.387-0.387-2.694-0.394l-2.081-0.006-0.012-6.681c-0.019-6.644-0.019-6.688-0.15-6.856-0.069-0.094-0.206-0.231-0.3-0.3-0.163-0.125-0.256-0.131-2.462-0.144-1.819-0.013-2.331 0-2.481 0.069z"></path>
<path d="M1.012 26.231l0.019 4.238 0.163 0.35c0.206 0.444 0.544 0.781 0.988 0.987l0.35 0.163h26.938l0.35-0.163c0.444-0.206 0.781-0.544 0.988-0.987l0.162-0.35 0.019-4.238 0.019-4.231h-4.006v6h-22v-6h-4.006l0.019 4.231z"></path>
</symbol>
<symbol id="icon-ladder-blue" viewBox="0 0 27 32">
<path fill="#6dc2e7" style="fill: var(--color1, #6dc2e7)" d="M7.926 6.259l16.080 7.498-0.776 1.664-16.080-7.498 0.776-1.664z"></path>
<path fill="#6dc2e7" style="fill: var(--color1, #6dc2e7)" d="M3.257 16.271l16.080 7.498-0.751 1.611-16.080-7.498 0.751-1.611z"></path>
<path fill="#6dc2e7" style="fill: var(--color1, #6dc2e7)" d="M5.573 11.305l16.080 7.498-0.738 1.584-16.080-7.498 0.738-1.584z"></path>
<path fill="#6dc2e7" style="fill: var(--color1, #6dc2e7)" d="M10.254 1.266l16.080 7.498-0.751 1.611-16.080-7.498 0.751-1.611z"></path>
<path fill="#6dc2e7" style="fill: var(--color1, #6dc2e7)" d="M0.929 21.264l16.080 7.498-0.764 1.637-16.080-7.498 0.763-1.637z"></path>
<path fill="#5babdc" style="fill: var(--color2, #5babdc)" d="M7.15 7.923l16.080 7.498-0.138 0.295-16.080-7.498 0.138-0.295z"></path>
<path fill="#5babdc" style="fill: var(--color2, #5babdc)" d="M2.506 17.881l16.080 7.498-0.163 0.349-16.080-7.498 0.163-0.349z"></path>
<path fill="#5babdc" style="fill: var(--color2, #5babdc)" d="M4.834 12.889l16.080 7.498-0.163 0.349-16.080-7.498 0.163-0.349z"></path>
<path fill="#5babdc" style="fill: var(--color2, #5babdc)" d="M9.503 2.877l16.080 7.498-0.175 0.376-16.080-7.498 0.175-0.376z"></path>
<path fill="#5babdc" style="fill: var(--color2, #5babdc)" d="M0.166 22.901l16.080 7.498-0.163 0.349-16.080-7.498 0.163-0.349z"></path>
<path fill="#72adf9" style="fill: var(--color3, #72adf9)" d="M23.045 11.479l1.126 0.525-2.328 4.993-1.126-0.525 2.328-4.993z"></path>
<path fill="#72adf9" style="fill: var(--color3, #72adf9)" d="M18.389 21.465l1.126 0.525-2.353 5.046-1.126-0.525 2.353-5.046z"></path>
<path fill="#72adf9" style="fill: var(--color3, #72adf9)" d="M20.717 16.472l1.126 0.525-2.328 4.993-1.126-0.525 2.328-4.993z"></path>
<path fill="#72adf9" style="fill: var(--color3, #72adf9)" d="M25.361 6.513l1.126 0.525-2.316 4.966-1.126-0.525 2.316-4.966z"></path>
<path fill="#72adf9" style="fill: var(--color3, #72adf9)" d="M16.036 26.511l1.126 0.525-2.303 4.939-1.126-0.525 2.303-4.939z"></path>
<path fill="#72adf9" style="fill: var(--color3, #72adf9)" d="M9.216 5.031l1.072 0.5-2.328 4.993-1.072-0.5 2.328-4.993z"></path>
<path fill="#72adf9" style="fill: var(--color3, #72adf9)" d="M4.56 15.016l1.072 0.5-2.353 5.046-1.072-0.5 2.353-5.046z"></path>
<path fill="#72adf9" style="fill: var(--color3, #72adf9)" d="M6.888 10.023l1.072 0.5-2.328 4.993-1.072-0.5 2.328-4.993z"></path>
<path fill="#72adf9" style="fill: var(--color3, #72adf9)" d="M11.532 0.065l1.072 0.5-2.316 4.966-1.072-0.5 2.316-4.966z"></path>
<path fill="#72adf9" style="fill: var(--color3, #72adf9)" d="M2.207 20.062l1.072 0.5-2.303 4.939-1.072-0.5 2.303-4.939z"></path>
</symbol>
<symbol id="icon-ladder-white" viewBox="0 0 28 32">
<path fill="#fff" style="fill: var(--color1, #fff)" d="M8.901 6.088l16.123 7.518-0.778 1.669-16.123-7.518 0.778-1.669z"></path>
<path fill="#fff" style="fill: var(--color1, #fff)" d="M4.22 16.126l16.123 7.518-0.753 1.615-16.123-7.518 0.753-1.615z"></path>
<path fill="#fff" style="fill: var(--color1, #fff)" d="M6.541 11.147l16.123 7.518-0.74 1.588-16.123-7.518 0.74-1.588z"></path>
<path fill="#fff" style="fill: var(--color1, #fff)" d="M11.235 1.082l16.123 7.518-0.753 1.615-16.123-7.518 0.753-1.615z"></path>
<path fill="#fff" style="fill: var(--color1, #fff)" d="M1.886 21.132l16.122 7.518-0.765 1.642-16.123-7.518 0.766-1.642z"></path>
<path fill="#fff" style="fill: var(--color1, #fff)" d="M8.123 7.756l16.123 7.518-0.138 0.296-16.123-7.518 0.138-0.296z"></path>
<path fill="#fff" style="fill: var(--color1, #fff)" d="M3.467 17.741l16.123 7.518-0.163 0.35-16.123-7.518 0.163-0.35z"></path>
<path fill="#fff" style="fill: var(--color1, #fff)" d="M5.801 12.735l16.123 7.518-0.163 0.35-16.122-7.518 0.163-0.35z"></path>
<path fill="#fff" style="fill: var(--color1, #fff)" d="M10.482 2.697l16.123 7.518-0.176 0.377-16.123-7.518 0.176-0.377z"></path>
<path fill="#fff" style="fill: var(--color1, #fff)" d="M1.12 22.773l16.123 7.518-0.163 0.35-16.122-7.518 0.163-0.35z"></path>
<path fill="#fff" style="fill: var(--color1, #fff)" d="M24.060 11.322l1.128 0.526-2.334 5.006-1.129-0.526 2.334-5.006z"></path>
<path fill="#fff" style="fill: var(--color1, #fff)" d="M19.392 21.333l1.129 0.526-2.359 5.060-1.129-0.526 2.359-5.060z"></path>
<path fill="#fff" style="fill: var(--color1, #fff)" d="M21.726 16.327l1.129 0.526-2.334 5.006-1.129-0.526 2.334-5.006z"></path>
<path fill="#fff" style="fill: var(--color1, #fff)" d="M26.382 6.343l1.128 0.526-2.322 4.979-1.128-0.526 2.322-4.979z"></path>
<path fill="#fff" style="fill: var(--color1, #fff)" d="M17.032 26.393l1.129 0.526-2.309 4.952-1.129-0.526 2.309-4.952z"></path>
<path fill="#fff" style="fill: var(--color1, #fff)" d="M10.195 4.856l1.075 0.501-2.334 5.006-1.075-0.501 2.334-5.006z"></path>
<path fill="#fff" style="fill: var(--color1, #fff)" d="M5.526 14.868l1.075 0.501-2.359 5.060-1.075-0.501 2.359-5.060z"></path>
<path fill="#fff" style="fill: var(--color1, #fff)" d="M7.86 9.862l1.075 0.501-2.334 5.006-1.075-0.501 2.334-5.006z"></path>
<path fill="#fff" style="fill: var(--color1, #fff)" d="M12.516-0.123l1.075 0.501-2.322 4.979-1.075-0.501 2.322-4.979z"></path>
<path fill="#fff" style="fill: var(--color1, #fff)" d="M3.167 19.927l1.075 0.501-2.309 4.952-1.075-0.501 2.309-4.952z"></path>
</symbol>
<symbol id="icon-ladder-black" viewBox="0 0 27 32">
<path fill="#000" style="fill: var(--color1, #000)" d="M7.926 6.259l16.080 7.498-0.776 1.664-16.080-7.498 0.776-1.664z"></path>
<path fill="#000" style="fill: var(--color1, #000)" d="M3.257 16.271l16.080 7.498-0.751 1.611-16.080-7.498 0.751-1.611z"></path>
<path fill="#000" style="fill: var(--color1, #000)" d="M5.573 11.305l16.080 7.498-0.738 1.584-16.080-7.498 0.738-1.584z"></path>
<path fill="#000" style="fill: var(--color1, #000)" d="M10.254 1.266l16.080 7.498-0.751 1.611-16.080-7.498 0.751-1.611z"></path>
<path fill="#000" style="fill: var(--color1, #000)" d="M0.929 21.264l16.080 7.498-0.764 1.637-16.080-7.498 0.763-1.637z"></path>
<path fill="#000" style="fill: var(--color1, #000)" d="M7.15 7.923l16.080 7.498-0.138 0.295-16.080-7.498 0.138-0.295z"></path>
<path fill="#000" style="fill: var(--color1, #000)" d="M2.506 17.881l16.080 7.498-0.163 0.349-16.080-7.498 0.163-0.349z"></path>
<path fill="#000" style="fill: var(--color1, #000)" d="M4.834 12.889l16.080 7.498-0.163 0.349-16.080-7.498 0.163-0.349z"></path>
<path fill="#000" style="fill: var(--color1, #000)" d="M9.503 2.877l16.080 7.498-0.175 0.376-16.080-7.498 0.175-0.376z"></path>
<path fill="#000" style="fill: var(--color1, #000)" d="M0.166 22.901l16.080 7.498-0.163 0.349-16.080-7.498 0.163-0.349z"></path>
<path fill="#000" style="fill: var(--color1, #000)" d="M23.045 11.479l1.126 0.525-2.328 4.993-1.126-0.525 2.328-4.993z"></path>
<path fill="#000" style="fill: var(--color1, #000)" d="M18.389 21.465l1.126 0.525-2.353 5.046-1.126-0.525 2.353-5.046z"></path>
<path fill="#000" style="fill: var(--color1, #000)" d="M20.717 16.472l1.126 0.525-2.328 4.993-1.126-0.525 2.328-4.993z"></path>
<path fill="#000" style="fill: var(--color1, #000)" d="M25.361 6.513l1.126 0.525-2.316 4.966-1.126-0.525 2.316-4.966z"></path>
<path fill="#000" style="fill: var(--color1, #000)" d="M16.036 26.511l1.126 0.525-2.303 4.939-1.126-0.525 2.303-4.939z"></path>
<path fill="#000" style="fill: var(--color1, #000)" d="M9.216 5.031l1.072 0.5-2.328 4.993-1.072-0.5 2.328-4.993z"></path>
<path fill="#000" style="fill: var(--color1, #000)" d="M4.56 15.016l1.072 0.5-2.353 5.046-1.072-0.5 2.353-5.046z"></path>
<path fill="#000" style="fill: var(--color1, #000)" d="M6.888 10.023l1.072 0.5-2.328 4.993-1.072-0.5 2.328-4.993z"></path>
<path fill="#000" style="fill: var(--color1, #000)" d="M11.532 0.065l1.072 0.5-2.316 4.966-1.072-0.5 2.316-4.966z"></path>
<path fill="#000" style="fill: var(--color1, #000)" d="M2.207 20.062l1.072 0.5-2.303 4.939-1.072-0.5 2.303-4.939z"></path>
</symbol>
<symbol id="icon-eye" viewBox="0 0 44 32">
<path d="M16.613 0.24c-0.391 0.244-0.706 0.794-0.706 1.23 0.008 0.567 0.927 6.396 1.055 6.64 0.162 0.323 0.587 0.707 0.868 0.777 0.119 0.035 0.4 0.035 0.63 0.017 0.749-0.079 1.276-0.689 1.276-1.483 0-0.201-0.204-1.736-0.459-3.403-0.4-2.661-0.476-3.080-0.672-3.368-0.408-0.646-1.31-0.829-1.991-0.41z"></path>
<path d="M25.443 0.17c-0.604 0.305-0.672 0.515-1.165 3.848-0.255 1.667-0.459 3.202-0.459 3.403 0 0.794 0.527 1.405 1.276 1.483 0.23 0.017 0.51 0.017 0.629-0.017 0.281-0.070 0.706-0.454 0.868-0.777 0.128-0.244 1.046-6.073 1.055-6.64 0-0.445-0.323-0.995-0.715-1.23-0.434-0.262-1.055-0.288-1.489-0.070z"></path>
<path d="M8.481 2.762c-0.408 0.157-0.629 0.358-0.834 0.768-0.323 0.654-0.272 0.82 1.182 3.883 0.732 1.562 1.455 2.984 1.608 3.159 0.434 0.524 1.131 0.672 1.718 0.358 0.638-0.332 0.97-1.030 0.8-1.684-0.060-0.201-0.715-1.649-1.463-3.22-1.225-2.557-1.395-2.879-1.684-3.071-0.408-0.279-0.91-0.349-1.327-0.192z"></path>
<path d="M34.179 2.727c-0.604 0.183-0.706 0.349-2.127 3.307-0.74 1.562-1.395 3.010-1.455 3.211-0.17 0.654 0.162 1.352 0.8 1.684 0.587 0.314 1.285 0.166 1.718-0.358 0.153-0.175 0.876-1.597 1.616-3.159 1.446-3.063 1.497-3.228 1.174-3.883-0.204-0.41-0.425-0.611-0.834-0.768-0.366-0.131-0.561-0.14-0.893-0.035z"></path>
<path d="M0.893 8.171c-0.757 0.349-1.080 1.23-0.74 1.998 0.196 0.436 4.364 4.886 4.755 5.078s1.131 0.14 1.446-0.096c0.544-0.419 0.766-1.030 0.604-1.693-0.077-0.323-0.281-0.576-1.165-1.527-2.492-2.661-3.471-3.647-3.726-3.761-0.34-0.148-0.842-0.148-1.174 0z"></path>
<path d="M41.469 8.171c-0.238 0.113-1.267 1.16-3.709 3.761-0.885 0.951-1.089 1.204-1.165 1.527-0.162 0.663 0.060 1.274 0.604 1.693 0.315 0.236 1.055 0.288 1.446 0.096s4.559-4.642 4.755-5.078c0.553-1.248-0.715-2.557-1.931-1.998z"></path>
<path d="M20.501 10.806c-3.258 0.384-5.104 0.934-7.835 2.356-2.56 1.326-4.891 3.115-7.052 5.41-0.953 1.012-2.042 2.365-2.152 2.679-0.077 0.218 0.026 0.401 0.825 1.413 2.969 3.769 7.707 7.111 11.96 8.446 3.122 0.977 6.414 1.117 9.553 0.401 4.083-0.925 8.268-3.394 11.73-6.919 1.004-1.021 2.288-2.548 2.518-2.993 0.059-0.105 0.077-0.262 0.042-0.349-0.111-0.314-1.199-1.667-2.152-2.679-3.939-4.171-8.66-6.832-13.508-7.6-0.808-0.131-3.343-0.236-3.93-0.166zM18.136 13.808c1.131 0.96 0.995 2.949-0.255 3.761-0.834 0.541-1.871 0.523-2.603-0.052-0.366-0.288-0.374-0.288-0.434-0.105-0.111 0.401-0.145 1.963-0.051 2.574 0.213 1.405 0.859 2.766 1.82 3.822 2.799 3.080 7.528 3.080 10.327 0 1.335-1.466 1.982-3.307 1.871-5.331-0.077-1.448-0.553-2.801-1.378-3.918-0.204-0.288-0.366-0.532-0.349-0.55s0.366 0.105 0.783 0.271c3.020 1.195 5.623 2.993 8.268 5.706l1.301 1.335-0.179 0.236c-0.944 1.23-3.292 3.368-4.976 4.528-6.958 4.79-14.053 4.79-21.011 0-1.344-0.925-2.348-1.789-3.777-3.255l-1.387-1.431 0.612-0.698c2.169-2.469 5.231-4.773 7.996-6.021 0.647-0.297 2.875-1.117 3.062-1.134 0.026 0 0.187 0.122 0.357 0.262z"></path>
</symbol>
<symbol id="icon-offline" viewBox="0 0 38 32">
<path d="M4.634 0.061c-0.37 0.046-0.724 0.295-0.899 0.631-0.22 0.424-0.188 0.917 0.084 1.308 0.084 0.119 28.894 29.665 28.994 29.734 0.106 0.072 0.276 0.149 0.401 0.181 0.144 0.038 0.407 0.038 0.551 0 0.286-0.072 0.548-0.258 0.707-0.495 0.139-0.209 0.207-0.433 0.208-0.691 0.002-0.245-0.050-0.435-0.175-0.656-0.040-0.069-3.304-3.426-14.489-14.902-7.94-8.148-14.48-14.844-14.532-14.883-0.242-0.179-0.556-0.262-0.851-0.226z"></path>
<path d="M18.456 1.297c-1.572 0.104-2.982 0.485-4.311 1.167-0.441 0.228-0.746 0.415-0.882 0.54-0.096 0.090-0.231 0.294-0.286 0.432-0.279 0.707 0.138 1.501 0.868 1.661 0.078 0.016 0.164 0.022 0.294 0.016 0.231-0.008 0.369-0.053 0.638-0.21 0.57-0.331 1.047-0.55 1.62-0.74 1.174-0.388 2.489-0.518 3.789-0.371 1.834 0.206 3.532 0.963 4.937 2.203 0.276 0.243 0.729 0.708 0.969 0.997 1.075 1.288 1.836 2.836 2.275 4.634 0.147 0.598 0.257 1.241 0.331 1.908 0.031 0.278 0.055 0.378 0.129 0.542 0.11 0.242 0.315 0.452 0.557 0.573 0.168 0.083 0.274 0.105 0.626 0.133 1.578 0.129 2.998 0.671 4.085 1.558 0.167 0.137 0.522 0.491 0.666 0.664 0.811 0.983 1.185 2.198 1.111 3.629-0.046 0.914-0.208 1.61-0.533 2.288-0.269 0.562-0.568 0.95-1.141 1.484-0.175 0.162-0.28 0.316-0.348 0.506-0.302 0.856 0.374 1.741 1.252 1.639 0.363-0.042 0.588-0.188 1.111-0.729 0.537-0.551 0.935-1.124 1.271-1.822 0.429-0.895 0.663-1.796 0.761-2.929 0.024-0.295 0.024-1.23 0-1.5-0.15-1.589-0.642-2.856-1.571-4.044-0.207-0.264-0.775-0.843-1.050-1.072-0.86-0.713-1.826-1.244-2.95-1.617-0.481-0.162-0.965-0.284-1.428-0.364-0.139-0.025-0.26-0.052-0.269-0.061s-0.029-0.091-0.044-0.182c-0.086-0.528-0.23-1.179-0.383-1.727-0.713-2.555-2.070-4.785-3.88-6.38-1.912-1.685-4.23-2.648-6.791-2.822-0.207-0.014-1.232-0.017-1.424-0.005z"></path>
<path d="M6.729 9.23c-0.204 0.053-0.721 0.253-1.11 0.429-1.756 0.798-3.166 1.988-4.141 3.499-0.736 1.14-1.213 2.478-1.392 3.91-0.061 0.485-0.077 0.758-0.077 1.366 0 0.652 0.018 0.934 0.092 1.46 0.389 2.789 1.929 5.198 4.299 6.721 1.358 0.875 2.955 1.426 4.61 1.592 0.57 0.058 0.675 0.058 7.992 0.053l7.18-0.005 0.122-0.042c0.205-0.072 0.337-0.157 0.493-0.319 0.122-0.126 0.149-0.165 0.216-0.308 0.093-0.199 0.126-0.338 0.126-0.553 0-0.507-0.302-0.958-0.759-1.135-0.236-0.091 0.279-0.085-7.405-0.085-4.538 0-7.167-0.006-7.329-0.016-2.439-0.152-4.552-1.244-5.879-3.039-0.775-1.047-1.22-2.26-1.349-3.667-0.025-0.267-0.025-1.036 0-1.327 0.138-1.641 0.7-2.991 1.704-4.1 0.816-0.905 1.88-1.585 3.229-2.070 0.224-0.080 0.335-0.151 0.49-0.308 0.149-0.151 0.237-0.294 0.296-0.474 0.104-0.319 0.084-0.623-0.060-0.931-0.155-0.33-0.441-0.565-0.788-0.652-0.165-0.039-0.406-0.041-0.559-0.002z"></path>
</symbol>
<symbol id="icon-star" viewBox="0 0 34 32">
<path d="M15.734 1.151c0.404-1.218 2.127-1.218 2.531 0l3.074 9.274c0.181 0.546 0.691 0.914 1.266 0.914h9.891c1.298 0 1.831 1.666 0.773 2.419l-7.955 5.665c-0.477 0.339-0.676 0.95-0.492 1.506l3.049 9.199c0.406 1.224-0.989 2.253-2.039 1.506l-8.059-5.739c-0.463-0.33-1.084-0.33-1.547 0l-8.059 5.739c-1.050 0.748-2.445-0.282-2.039-1.506l3.049-9.199c0.184-0.555-0.015-1.166-0.492-1.506l-7.955-5.665c-1.057-0.753-0.525-2.419 0.773-2.419h9.89c0.575 0 1.085-0.368 1.266-0.914l3.074-9.274z"></path>
</symbol>
<symbol id="icon-arrow-left" viewBox="0 0 15 32">
<path fill="none" stroke-linejoin="miter" stroke-linecap="round" stroke-miterlimit="4" stroke-width="4.5714" d="M12.571 2.286l-9.828 12.329c-0.61 0.765-0.61 2.006 0 2.771l9.828 12.329"></path>
</symbol>
<symbol id="icon-arrow-right" viewBox="0 0 15 32">
<path fill="none" stroke-linejoin="miter" stroke-linecap="round" stroke-miterlimit="4" stroke-width="4.5714" d="M2.286 29.714l9.828-12.329c0.61-0.765 0.61-2.006 0-2.771l-9.828-12.329"></path>
</symbol>
</defs>
</svg>